# xmcd CD database file
#
# Track frame offsets:
#	150
#	26325
#	54150
#	82200
#	127800
#	149888
#	180300
#	208050
#	252825
#
# Disc length: 3756 seconds
#
# Revision: 0
# Processed by: cddbd v1.5.1PL2 Copyright (c) Steve Scherf et al.
# Submitted via: CDex 1.51
#
DISCID=790eaa09
DTITLE=Billy Drummond Quintet - Native Colours
DYEAR=1900
DGENRE=Jazz
TTITLE0=8/4 Beat
TTITLE1=Native Colours
TTITLE2=San Francisco Holiday-Worry Later
TTITLE3=Waltz for Sweetie
TTITLE4=One For Walton
TTITLE5=Lexicon
TTITLE6=Ruby, My Dear
TTITLE7=Yesterday´s Gardenias
TTITLE8=Happy House
EXTD=
EXTT0=
EXTT1=
EXTT2=
EXTT3=
EXTT4=
EXTT5=
EXTT6=
EXTT7=
EXTT8=
PLAYORDER=
